<svg xmlns="http://www.w3.org/2000/svg" viewBox="0 0 100 100">
  <g>
    <ellipse cx="50" cy="21" rx="7" ry="17" fill="#1c7f93" transform="rotate(0 50 54)"/>
    <ellipse cx="50" cy="21" rx="7" ry="17" fill="#1f6fb2" transform="rotate(30 50 54)"/>
    <ellipse cx="50" cy="21" rx="7" ry="17" fill="#1c7f93" transform="rotate(60 50 54)"/>
    <ellipse cx="50" cy="21" rx="7" ry="17" fill="#4a7f3c" transform="rotate(90 50 54)"/>
    <ellipse cx="50" cy="21" rx="7" ry="17" fill="#29abe0" transform="rotate(120 50 54)"/>
    <ellipse cx="50" cy="21" rx="7" ry="17" fill="#1c7f93" transform="rotate(150 50 54)"/>
    <ellipse cx="50" cy="21" rx="7" ry="17" fill="#f7d117" transform="rotate(180 50 54)"/>
    <ellipse cx="50" cy="21" rx="7" ry="17" fill="#1f6fb2" transform="rotate(210 50 54)"/>
    <ellipse cx="50" cy="21" rx="7" ry="17" fill="#4a7f3c" transform="rotate(240 50 54)"/>
    <ellipse cx="50" cy="21" rx="7" ry="17" fill="#f7d117" transform="rotate(270 50 54)"/>
    <ellipse cx="50" cy="21" rx="7" ry="17" fill="#f6cfa0" transform="rotate(300 50 54)"/>
    <ellipse cx="50" cy="21" rx="7" ry="17" fill="#f7d117" transform="rotate(330 50 54)"/>
  </g>
  <circle cx="50" cy="54" r="17" fill="#f39a1f"/>
  <circle cx="45" cy="52" r="1.6" fill="#1a1a1a"/>
  <circle cx="56" cy="52" r="1.6" fill="#1a1a1a"/>
  <path d="M45.5 58 C48 62 53 62 55.5 58" stroke="#1a1a1a" stroke-width="2" stroke-linecap="round" fill="none"/>
  <path d="M50.5 48.5 L50 53.5" stroke="#1a1a1a" stroke-width="2" stroke-linecap="round" fill="none"/>
</svg>
